<?xml version="1.0" encoding="UTF-8" standalone="no"?>
<!-- Created with Inkscape (http://www.inkscape.org/) -->

<svg
   width="48"
   height="48"
   viewBox="0 0 12.7 12.7"
   version="1.1"
   id="svg1"
   xml:space="preserve"
   inkscape:version="1.3.2 (091e20e, 2023-11-25, custom)"
   sodipodi:docname="ai.svg"
   xmlns:inkscape="http://www.inkscape.org/namespaces/inkscape"
   xmlns:sodipodi="http://sodipodi.sourceforge.net/DTD/sodipodi-0.dtd"
   xmlns="http://www.w3.org/2000/svg"
   xmlns:svg="http://www.w3.org/2000/svg"><sodipodi:namedview
     id="namedview1"
     pagecolor="#ffffff"
     bordercolor="#000000"
     borderopacity="0.25"
     inkscape:showpageshadow="2"
     inkscape:pageopacity="0.0"
     inkscape:pagecheckerboard="0"
     inkscape:deskcolor="#d1d1d1"
     inkscape:document-units="mm"
     inkscape:zoom="16"
     inkscape:cx="41.5"
     inkscape:cy="9.03125"
     inkscape:window-width="2560"
     inkscape:window-height="1369"
     inkscape:window-x="-8"
     inkscape:window-y="-8"
     inkscape:window-maximized="1"
     inkscape:current-layer="layer1" /><defs
     id="defs1" /><g
     inkscape:label="Layer 1"
     inkscape:groupmode="layer"
     id="layer1"><path
       style="fill:#0296d5;stroke:none;stroke-width:0.183328"
       d="M 8.9094595,9.1865947 H 8.7801165 C 8.3300045,7.6120898 7.8896075,5.9422242 7.3290885,4.4007252 7.1071215,3.7902904 6.7686162,3.0839103 6.1284773,2.8235487 5.6870403,2.6440052 5.2254466,2.7469272 4.7703245,2.7780952 4.2863508,2.8112379 3.7386869,2.6903689 3.2830759,2.8973077 2.1441044,3.4146519 1.7685124,5.3806802 1.4961101,6.4702931 1.3689467,6.9789653 0.8348483,8.3047741 1.1503835,8.7779941 1.3552298,9.0852085 2.7541495,9.031017 2.9398445,8.7242982 3.1669445,8.3491885 3.1916204,7.7370072 3.2828267,7.3110533 3.4746691,6.4150836 3.6977497,5.5268902 3.994438,4.6594225 4.0899828,4.3800551 4.3611897,3.4773684 4.6981663,3.4165429 5.0877838,3.3462159 5.4141709,4.6504856 5.503298,4.9181185 5.967783,6.3129197 6.1195579,8.773849 7.3633205,9.723052 c 0.392181,0.299301 0.887433,0.2396307 1.352116,0.2396307 0.498686,0 1.098206,0.092709 1.5519265,-0.1563443 C 11.15742,9.3177638 11.806709,7.3142504 11.54053,6.3447364 11.431771,5.9486181 10.109095,5.9587888 9.8352015,6.1859446 9.5660995,6.40913 9.5954285,6.9921856 9.5400285,7.3110523 9.4221425,7.9895639 9.1713795,8.5574807 8.9094575,9.1865951 M 9.9538197,3.8094779 c -0.2626172,0.1259043 -0.3288392,0.9157424 -0.0999,1.0970615 0.2374013,0.1880245 1.2951073,0.1534116 1.5630543,0.028239 0.312325,-0.1458978 0.286029,-0.8732085 0.05141,-1.0771019 -0.242165,-0.2104302 -1.23359,-0.1829043 -1.5145631,-0.04821"
       id="path1"
       sodipodi:nodetypes="ccsssccsscsscsscsssccsccc" /></g></svg>
