<svg aria-label="Warning Alt" fill="currentColor" focusable="false" role="img" viewBox="0 0 24 24" xmlns="http://www.w3.org/2000/svg" class="css-1xcgh5c"><path d="M21.0170288,18.513916L12.8718262,4.0298462c-0.3823242-0.6797485-1.3610229-0.6797485-1.7433472,0
	L2.9833374,18.513916C2.6084595,19.180481,3.09021,20.0040894,3.8549805,20.0040894h16.2903442
	C20.9100952,20.0040894,21.3917847,19.180481,21.0170288,18.513916z M11.5001221,7.999939c0-0.276123,0.223877-0.5,0.5-0.5
	c0.2761841,0,0.5,0.223877,0.5,0.5v5.499939c0,0.2762451-0.2238159,0.5-0.5,0.5c-0.276123,0-0.5-0.2237549-0.5-0.5V7.999939z
	 M12.0001221,17.5c-0.5523071,0-1-0.4476929-1-1s0.4476929-1,1-1s1,0.4476929,1,1S12.5524292,17.5,12.0001221,17.5z"></path></svg>
