<svg width="95" height="106" viewBox="0 0 95 106" fill="none" xmlns="http://www.w3.org/2000/svg">
<g>
<path d="M5.19995 17.3C2.99995 18.3 1.29995 20.4 0.999953 22.8C-0.200047 31.4 -2.00005 53.5 6.29995 73.6C6.69995 74.7 16.3 99.9 45.6 105.6C46.2 105.7 46.8 105.8 47.4 105.7C49 105.6 52.7 105 56 103.8C82.6 94.6 89.6 69.8 90.3 67C96.3 48.3 94.2 29.1 93.5 22.9C93.2 20.4 91.6 18.2 89.2 17.2L49.6 0.5C48.7 0.2 47.8 0 46.9 0C46 0 45 0.2 44.1 0.6L5.19995 17.3ZM48.1 4.2L87.9 20.9C88.9 21.3 89.6 22.3 89.7 23.3C90.3999 29.4 92.4 47.9 86.6 65.8V66C86.5 66.2 80.2 91.3 54.8 100.1C52.1 101 48.7 101.7 47.3 101.7C47.2 101.7 47.2 101.7 47.1 101.7C46.9 101.7 46.7 101.7 46.5 101.6C19.2 96.2 10.5 73.1 10.2 72.1V72C2.09995 52.9 3.89995 31.6 4.99995 23.3C5.09995 22.2 5.79995 21.4 6.79995 20.9L45.7 4.2C46.4 3.9 47.3 3.9 48.1 4.2Z" fill="#fff"/>
<path d="M78.5 45.0001C78.5 44.9001 78.5 44.8001 78.5 44.7001C78.5 44.6001 78.5 44.6001 78.5 44.5001C78.5 44.1001 78.4 43.7001 78.2 43.4001C78.2 43.3001 78.1 43.3001 78.1 43.2001C78 43.1001 78 43.0001 77.9 43.0001C77.9 42.9001 77.8 42.9001 77.8 42.8001C77.7 42.7001 77.7 42.7001 77.6 42.6001C77.5 42.5001 77.5 42.5001 77.4 42.4001C77.3 42.3001 77.3 42.3001 77.2 42.2001C77.1 42.1001 77 42.1001 76.8 42.0001C76.7 42.0001 76.7 41.9001 76.6 41.9001C76.5 41.8001 76.3 41.8001 76.2 41.8001C76.2 41.8001 76.2 41.8001 76.1 41.8001H76C75.9 41.8001 75.9 41.8001 75.8 41.8001L66.3 40.7001L66.8 38.6001C70.9 37.9001 74.1 34.4001 74.1 30.2001C74.1 25.5001 70.2 21.6001 65.4 21.6001C60.6 21.6001 56.7 25.4001 56.7 30.2001C56.7 33.3001 58.4 36.0001 60.9 37.5001L60.3 40.1001L54.5 39.5001C52.9 39.3001 51.4 40.5001 51.2 42.1001C51 43.7001 52.2 45.2001 53.8 45.4001L65.6 46.7001L44.6 58.3001L32.7 43.4001L39 44.0001C41.2 50.6001 47.4 52.8001 47.6 52.9001C47.9 53.0001 48.3 53.1001 48.6 53.1001C49.8 53.1001 51 52.3001 51.4 51.1001C51.9 49.5001 51.1 47.8001 49.5 47.3001C49.5 47.3001 45.4 45.8001 44.4 41.4001C44.1 40.2001 44 39.1001 44.1 38.2001C45 38.8001 46.3 38.9001 47.3 38.3001C48.7 37.4001 49.2 35.6001 48.3 34.2001L46.2 30.7001C45.5 29.6001 44.2 29.0001 42.9 29.4001C41 29.9001 38.4 33.1001 38.1 37.9001L26.2 36.6001C26.1 36.6001 26.1 36.6001 26 36.6001C25.9 36.6001 25.9 36.6001 25.8 36.6001C25.7 36.6001 25.5 36.6001 25.4 36.6001H25.3C25.1 36.6001 25 36.7001 24.8 36.7001C24.8 36.7001 24.7 36.7001 24.7 36.8001C24.6 36.9001 24.5 36.9001 24.3 37.0001C24.3 37.0001 24.2 37.0001 24.2 37.1001C23.9 37.3001 23.6 37.6001 23.4 37.9001C23.3 38.0001 23.3 38.1001 23.2 38.1001C23.2 38.2001 23.1 38.3001 23.1 38.3001C23 38.5001 22.9 38.7001 22.9 39.0001L15.9 71.9001C15.7 72.7001 15.9 73.5001 16.3 74.2001C16.8 74.9001 17.5 75.3001 18.3 75.5001L66.7 84.0001C66.9 84.0001 67.1 84.0001 67.2 84.0001C68.6 84.0001 69.8 83.0001 70.1 81.7001L78.3 45.3001C78.3 45.2001 78.3 45.2001 78.3 45.1001C78.5 45.2001 78.5 45.1001 78.5 45.0001ZM65.4 27.6001C66.9 27.6001 68.1 28.8001 68.1 30.2001C68.1 31.6001 66.9 32.8001 65.4 32.8001C63.9 32.8001 62.7 31.6001 62.7 30.2001C62.7 28.8001 64 27.6001 65.4 27.6001ZM65.1 77.7001L22.6 70.2001L27.6 46.5001L41.4 64.0001C42 64.7001 42.9 65.1001 43.8 65.1001C44.3 65.1001 44.8 65.0001 45.2 64.7001L71.1 50.5001L65.1 77.7001Z" fill="#fff"/>
</g>
</svg>
