<svg xmlns="http://www.w3.org/2000/svg" viewBox="0 0 347.58 339.64"><defs><style>.cls-1{fill:#fff;}.cls-2{fill:#d1d3d4;}</style></defs><g id="Layer_2" data-name="Layer 2"><g id="Layer_1-2" data-name="Layer 1"><path class="cls-1" d="M183.51,147.49l60.14-35.68-.28-.53L232.78,45l-.12.1c-9.14,34.06-32.46,58.28-59.79,58.28h0V237.25l18.55-8.48h0l-7.85-81C183.5,147.6,183.49,147.49,183.51,147.49Z"/><path class="cls-2" d="M113.1,45.2l-.23-.2-10.59,66.28-.28.53,60.14,35.68s0,.11,0,.3l-7.85,81h0l18.54,8.48V103.38C145.54,103.35,122.26,79.19,113.1,45.2Z"/><path class="cls-1" d="M209.56,141.12l29.87-18.49,31.41,39h0c-12.56.34-34.06,7.24-47.94,21.38-16.22,16.55-24,40.68-24,40.68l-6.69-59.88c.57-.27,7-3.17,10.46-6.82C206.82,152.7,209.41,143.84,209.56,141.12Z"/><path class="cls-2" d="M136.09,141.12l-29.87-18.49-31.41,39h0c12.56.34,34.06,7.24,47.94,21.38,16.23,16.55,23.95,40.68,23.95,40.68l6.69-59.88c-.57-.27-7-3.17-10.45-6.82C138.84,152.7,136.25,143.84,136.09,141.12Z"/><path class="cls-1" d="M172.83,0C100.73,0,42.07,58.65,42.07,130.75S100.73,261.5,172.83,261.5s130.75-58.65,130.75-130.75S244.92,0,172.83,0Zm0,252.61A121.86,121.86,0,1,1,294.68,130.75,122,122,0,0,1,172.83,252.61Z"/><path class="cls-1" d="M19.74,308.23c.71,0,1.07.34,1.07,1V339.1H17.2a1.09,1.09,0,0,1-.78-.27.92.92,0,0,1-.29-.75V325.25H4.68V339.1H1.07c-.71,0-1.07-.34-1.07-1V308.23H3.61a1.15,1.15,0,0,1,.78.26,1,1,0,0,1,.29.76v12.07H16.13V308.23Z"/><path class="cls-1" d="M28.11,339.1c-.71,0-1.07-.34-1.07-1V308.76c1.31-.24,2.78-.44,4.42-.6s3.16-.25,4.58-.25c3.6,0,6.24.78,7.94,2.32s2.53,4.13,2.53,7.75a13.67,13.67,0,0,1-.69,4.68,8,8,0,0,1-1.93,3.12,7.56,7.56,0,0,1-3.06,1.76,13.48,13.48,0,0,1-4,.56,19.22,19.22,0,0,1-2.45-.16,26.8,26.8,0,0,1-2.72-.47V339.1Zm3.57-15.19c.77.15,1.54.27,2.32.38a17.92,17.92,0,0,0,2.31.15,9.38,9.38,0,0,0,2.5-.29,3.65,3.65,0,0,0,1.76-1,4.66,4.66,0,0,0,1-2,14.29,14.29,0,0,0,0-6.46,4.24,4.24,0,0,0-1.13-1.94,4.12,4.12,0,0,0-1.85-.94,11.66,11.66,0,0,0-2.48-.24c-.89,0-1.73,0-2.51.09s-1.44.13-1.94.22Z"/><path class="cls-1" d="M76.62,310.72a1.09,1.09,0,0,1,.78.29,1.43,1.43,0,0,1,.37.78l4.63,21.79q1.53-6.15,2.67-12.57c.76-4.27,1.3-8.54,1.63-12.78h3.48q1,0,.93,1.11c0,.42-.06.83-.11,1.25s-.1.9-.16,1.47c-.23,1.87-.54,3.93-.91,6.17s-.82,4.55-1.32,6.93-1.08,4.75-1.71,7.12-1.29,4.65-2,6.82H81a1.07,1.07,0,0,1-.8-.27,1.69,1.69,0,0,1-.4-.84l-4.59-21-4.84,22.1H66.53a1.33,1.33,0,0,1-.88-.22,2.21,2.21,0,0,1-.47-.76q-1-3.08-2-6.81c-.66-2.5-1.25-5.08-1.79-7.74s-1-5.3-1.4-7.93-.7-5.1-.91-7.41h3.79q.93,0,1,1.11.49,5.88,1.59,11.94T68,333.53l5-22.81Z"/><path class="cls-1" d="M117.13,323.69a33,33,0,0,1-.8,8.06,12.09,12.09,0,0,1-2.27,4.86,7.47,7.47,0,0,1-3.54,2.38,15.34,15.34,0,0,1-4.57.65,15,15,0,0,1-4.54-.65,7.46,7.46,0,0,1-3.52-2.38,12.22,12.22,0,0,1-2.28-4.86,41.05,41.05,0,0,1,0-16.13,12.11,12.11,0,0,1,2.28-4.85,7.48,7.48,0,0,1,3.52-2.39,15,15,0,0,1,4.54-.64,15.34,15.34,0,0,1,4.57.64,7.49,7.49,0,0,1,3.54,2.39,12,12,0,0,1,2.27,4.85A33.07,33.07,0,0,1,117.13,323.69Zm-17.55,0a45.61,45.61,0,0,0,.29,5.72,11,11,0,0,0,1,3.7,4.49,4.49,0,0,0,2,2,8.31,8.31,0,0,0,6.2,0,4.49,4.49,0,0,0,2-2,11.2,11.2,0,0,0,1-3.7,51.37,51.37,0,0,0,0-11.45,11.2,11.2,0,0,0-1-3.7,4.47,4.47,0,0,0-2-2,8.31,8.31,0,0,0-6.2,0,4.47,4.47,0,0,0-2,2,11,11,0,0,0-1,3.7A45.68,45.68,0,0,0,99.58,323.69Z"/><path class="cls-1" d="M123.82,339.1c-.72,0-1.07-.34-1.07-1V308.23h3.61a1.17,1.17,0,0,1,.78.26,1,1,0,0,1,.29.76v25.93h11c.71,0,1.07.34,1.07,1v2.89Z"/><path class="cls-1" d="M160.71,312.06H148.45v9.67h9.81a.9.9,0,0,1,1,1v2.85H148.45v13.5h-3.6c-.72,0-1.07-.34-1.07-1V308.23h15.9a.9.9,0,0,1,1,1Z"/><path class="cls-1" d="M173.36,316.29c0-2.82.8-5,2.41-6.37s4.08-2.14,7.44-2.14A27.75,27.75,0,0,1,187,308a15,15,0,0,1,2.9.6,1.51,1.51,0,0,1,.86.69,2.14,2.14,0,0,1,.16.87v2.05c-1.1-.15-2.23-.28-3.39-.38s-2.34-.16-3.56-.16a12.42,12.42,0,0,0-2.9.29,4.88,4.88,0,0,0-1.85.83,2.94,2.94,0,0,0-1,1.33,5.62,5.62,0,0,0-.28,1.87,5.4,5.4,0,0,0,.31,2,3.13,3.13,0,0,0,1,1.35,7.45,7.45,0,0,0,1.92,1.05c.79.31,1.76.68,2.92,1.09s2.26.89,3.23,1.34a9,9,0,0,1,2.49,1.67,6.67,6.67,0,0,1,1.61,2.45,10.42,10.42,0,0,1,.55,3.68c0,3.2-.86,5.5-2.58,6.88s-4.22,2.07-7.48,2.07a28.07,28.07,0,0,1-4.15-.29,16.14,16.14,0,0,1-3.12-.69,1.59,1.59,0,0,1-.8-.58,1.61,1.61,0,0,1-.22-.89v-2.23q1.56.22,3.45.45a34.26,34.26,0,0,0,4,.22,12.19,12.19,0,0,0,3.1-.33,4.74,4.74,0,0,0,1.91-.94,3,3,0,0,0,1-1.49,6.86,6.86,0,0,0,.27-2,6.15,6.15,0,0,0-.29-2.05,3,3,0,0,0-1-1.36,8.6,8.6,0,0,0-1.89-1.05q-1.18-.5-3-1.11a34.14,34.14,0,0,1-3.32-1.38,9.32,9.32,0,0,1-2.45-1.72,6.78,6.78,0,0,1-1.54-2.41A9.85,9.85,0,0,1,173.36,316.29Z"/><path class="cls-1" d="M213.68,308.23a.9.9,0,0,1,1,1v2.81H202v9.49h10.56a.9.9,0,0,1,1,1v2.85H202v9.85h12.21a1.09,1.09,0,0,1,.78.27,1,1,0,0,1,.29.76v2.8H198.36c-.72,0-1.07-.34-1.07-1V308.23Z"/><path class="cls-1" d="M230.39,307.78a21.34,21.34,0,0,1,3.23.25,10.76,10.76,0,0,1,2.61.64,1.42,1.42,0,0,1,.73.58,1.85,1.85,0,0,1,.2.94v2.09c-.86-.12-1.82-.23-2.87-.33a31.75,31.75,0,0,0-3.28-.16,9.09,9.09,0,0,0-3.38.56,4.64,4.64,0,0,0-2.23,1.89,9.28,9.28,0,0,0-1.2,3.59,36.62,36.62,0,0,0-.36,5.63,33.77,33.77,0,0,0,.45,6.11,9.94,9.94,0,0,0,1.31,3.67,4.49,4.49,0,0,0,2.21,1.81,9.32,9.32,0,0,0,3.16.49,21.75,21.75,0,0,0,3.25-.22,14.34,14.34,0,0,1,2.1-.23,1,1,0,0,1,1.11,1.07v2.18a20.06,20.06,0,0,1-3.1.87,19.86,19.86,0,0,1-4.16.38,12.94,12.94,0,0,1-5-.89,8,8,0,0,1-3.45-2.83,13,13,0,0,1-2-4.94,35.89,35.89,0,0,1-.63-7.24,36.43,36.43,0,0,1,.63-7.31,12.9,12.9,0,0,1,2-4.95,7.82,7.82,0,0,1,3.5-2.78A13.81,13.81,0,0,1,230.39,307.78Z"/><path class="cls-1" d="M262.2,328.19q0,5.88-2.38,8.64T252,339.59a16.07,16.07,0,0,1-4.43-.55,7.46,7.46,0,0,1-3.26-1.88,8.47,8.47,0,0,1-2-3.49,18.52,18.52,0,0,1-.69-5.48v-20h3.61c.71,0,1.07.34,1.07,1v19.43a15.85,15.85,0,0,0,.24,2.89,5.69,5.69,0,0,0,.87,2.21,3.89,3.89,0,0,0,1.71,1.38,7.33,7.33,0,0,0,2.83.47,7,7,0,0,0,2.77-.47,3.92,3.92,0,0,0,1.69-1.36,5.43,5.43,0,0,0,.87-2.18,16.53,16.53,0,0,0,.24-3v-20.4h3.61a1.13,1.13,0,0,1,.78.26,1,1,0,0,1,.29.76Z"/><path class="cls-1" d="M269.33,339.1c-.71,0-1.07-.34-1.07-1V308.76q2-.36,4.41-.6c1.64-.16,3.28-.25,4.95-.25,3.56,0,6.15.78,7.75,2.34s2.41,3.92,2.41,7.07a9,9,0,0,1-1.54,5.43,8.38,8.38,0,0,1-4.08,3,26.47,26.47,0,0,1,2.16,3c.73,1.15,1.41,2.34,2.05,3.56s1.22,2.42,1.74,3.61.93,2.24,1.23,3.16h-3.87a1.4,1.4,0,0,1-.91-.24,1.69,1.69,0,0,1-.47-.74,27.69,27.69,0,0,0-1.1-2.56c-.46-1-1-2-1.51-3s-1.16-2-1.81-3.07a27.3,27.3,0,0,0-2-2.78H272.9V339.1Zm3.57-16h4.9a8.77,8.77,0,0,0,2.16-.25,4,4,0,0,0,1.73-.87,4,4,0,0,0,1.14-1.76,8.62,8.62,0,0,0,.4-2.87,9.79,9.79,0,0,0-.35-2.85,4.22,4.22,0,0,0-1.05-1.78,3.68,3.68,0,0,0-1.76-.92,11.52,11.52,0,0,0-2.5-.24c-1,0-1.91,0-2.71.09s-1.46.13-2,.22Z"/><path class="cls-1" d="M294.59,339.1c-.71,0-1.07-.34-1.07-1V308.23h3.61c.71,0,1.07.34,1.07,1V339.1Z"/><path class="cls-1" d="M310.68,312.15h-7.09c-.71,0-1.07-.34-1.07-1v-2.89h20a1.13,1.13,0,0,1,.78.26,1,1,0,0,1,.29.76v2.9h-8.19v27h-3.61c-.72,0-1.07-.34-1.07-1Z"/><path class="cls-1" d="M335.8,339.1c-.71,0-1.06-.34-1.06-1v-10.7c-1-1.69-1.94-3.31-2.77-4.87s-1.59-3.12-2.27-4.68-1.31-3.13-1.89-4.7-1.11-3.21-1.58-4.9h4c.45,0,.73.09.87.29a3.25,3.25,0,0,1,.38.91c.26.95.59,2,1,3.07s.81,2.25,1.27,3.46,1,2.43,1.53,3.69,1.19,2.52,1.88,3.77q1-1.92,2-4.08t1.74-4.23c.52-1.38,1-2.67,1.36-3.88a26.67,26.67,0,0,0,.8-3h3.47a1,1,0,0,1,.89.42,1.15,1.15,0,0,1,.05,1.05q-.81,2.54-1.65,4.76c-.57,1.49-1.17,2.94-1.83,4.35s-1.36,2.81-2.11,4.21-1.59,2.85-2.48,4.36V339.1Z"/></g></g></svg>