<svg viewBox="0 0 7 7" xmlns="http://www.w3.org/2000/svg"><g fill="#FFF" fill-rule="nonzero"><path d="M5.457 2.478h-.522l-.718 2h.522z"/><path d="M3.478 6.74h-.087l.674-1.827h.913c.152 0 .348-.13.392-.283l.717-1.978c.109-.326-.065-.587-.413-.587H4.39L3.326 5l-.609 1.652a3.264 3.264 0 0 1-2.5-3.174c0-1.5 1-2.76 2.392-3.13l-.63 1.695-1.044 2.87h.695L2.522 2.5h.521l-.89 2.413h.695l.826-2.26c.109-.327-.065-.588-.413-.588h-.587L3.326.217h.152A3.257 3.257 0 0 1 6.74 3.478 3.257 3.257 0 0 1 3.48 6.74z"/></g></svg>
