<svg width="1280" height="720" viewBox="0 0 1280 720" fill="none" xmlns="http://www.w3.org/2000/svg">
  <rect width="1280" height="720" rx="40" fill="#07121A"/>
  <rect width="1280" height="720" rx="40" fill="url(#bg)"/>
  <circle cx="1092" cy="184" r="170" fill="url(#glowA)"/>
  <circle cx="236" cy="566" r="220" fill="url(#glowB)"/>
  <g filter="url(#shadow)">
    <rect x="110" y="120" width="1060" height="448" rx="34" fill="#0B1B25" fill-opacity="0.94"/>
    <rect x="158" y="164" width="238" height="18" rx="9" fill="#F6FBFB"/>
    <rect x="158" y="196" width="310" height="12" rx="6" fill="#8BE1D1" fill-opacity="0.36"/>
    <rect x="158" y="248" width="280" height="252" rx="28" fill="#102732"/>
    <rect x="212" y="286" width="172" height="108" rx="20" fill="#133743"/>
    <rect x="244" y="320" width="108" height="40" rx="20" fill="#4DD0B5" fill-opacity="0.24"/>
    <text x="275" y="346" fill="#D6FBF3" font-family="Space Grotesk, Arial, sans-serif" font-size="20" font-weight="700">EN</text>
    <rect x="474" y="248" width="280" height="252" rx="28" fill="#11283A"/>
    <rect x="528" y="286" width="172" height="108" rx="20" fill="#153248"/>
    <rect x="560" y="320" width="108" height="40" rx="20" fill="#79B8FF" fill-opacity="0.24"/>
    <text x="591" y="346" fill="#EAF4FF" font-family="Space Grotesk, Arial, sans-serif" font-size="20" font-weight="700">ZH</text>
    <rect x="790" y="248" width="280" height="252" rx="28" fill="#142633"/>
    <rect x="844" y="286" width="172" height="108" rx="20" fill="#1C3140"/>
    <rect x="876" y="320" width="108" height="40" rx="20" fill="#F7B955" fill-opacity="0.24"/>
    <text x="910" y="346" fill="#FFF0D1" font-family="Space Grotesk, Arial, sans-serif" font-size="20" font-weight="700">IT</text>
    <path d="M440 312H474" stroke="#4DD0B5" stroke-width="4" stroke-linecap="round"/>
    <path d="M756 312H790" stroke="#79B8FF" stroke-width="4" stroke-linecap="round"/>
    <path d="M438 436H790" stroke="url(#flow)" stroke-width="4" stroke-linecap="round" stroke-dasharray="10 12"/>
    <circle cx="438" cy="436" r="10" fill="#4DD0B5"/>
    <circle cx="614" cy="436" r="10" fill="#79B8FF"/>
    <circle cx="790" cy="436" r="10" fill="#F7B955"/>
    <rect x="158" y="520" width="164" height="26" rx="13" fill="#153744"/>
    <rect x="336" y="520" width="186" height="26" rx="13" fill="#18304A"/>
    <rect x="536" y="520" width="204" height="26" rx="13" fill="#1E3341"/>
    <rect x="754" y="520" width="144" height="26" rx="13" fill="#163B41"/>
  </g>
  <text x="112" y="654" fill="#F4FBFA" font-family="Space Grotesk, Arial, sans-serif" font-size="60" font-weight="700">Multilingual Curriculum Delivery Hub</text>
  <text x="114" y="691" fill="#98B9C5" font-family="Space Grotesk, Arial, sans-serif" font-size="24">Chinese / English / Italian delivery packaging and archive operations</text>
  <defs>
    <linearGradient id="bg" x1="112" y1="48" x2="1178" y2="670" gradientUnits="userSpaceOnUse">
      <stop stop-color="#07121A"/>
      <stop offset="0.52" stop-color="#0A1C28"/>
      <stop offset="1" stop-color="#061019"/>
    </linearGradient>
    <radialGradient id="glowA" cx="0" cy="0" r="1" gradientUnits="userSpaceOnUse" gradientTransform="translate(1092 184) rotate(90) scale(170)">
      <stop stop-color="#F7B955" stop-opacity="0.44"/>
      <stop offset="1" stop-color="#F7B955" stop-opacity="0"/>
    </radialGradient>
    <radialGradient id="glowB" cx="0" cy="0" r="1" gradientUnits="userSpaceOnUse" gradientTransform="translate(236 566) rotate(90) scale(220)">
      <stop stop-color="#4DD0B5" stop-opacity="0.34"/>
      <stop offset="1" stop-color="#4DD0B5" stop-opacity="0"/>
    </radialGradient>
    <linearGradient id="flow" x1="438" y1="436" x2="790" y2="436" gradientUnits="userSpaceOnUse">
      <stop stop-color="#4DD0B5"/>
      <stop offset="0.5" stop-color="#79B8FF"/>
      <stop offset="1" stop-color="#F7B955"/>
    </linearGradient>
    <filter id="shadow" x="78" y="92" width="1124" height="520" filterUnits="userSpaceOnUse" color-interpolation-filters="sRGB">
      <feDropShadow dx="0" dy="18" stdDeviation="20" flood-color="#000000" flood-opacity="0.28"/>
    </filter>
  </defs>
</svg>
