<svg width="1280" height="720" viewBox="0 0 1280 720" fill="none" xmlns="http://www.w3.org/2000/svg">
  <rect width="1280" height="720" rx="40" fill="#07131B"/>
  <rect width="1280" height="720" rx="40" fill="url(#bg)"/>
  <g opacity="0.14" stroke="#8AE2D0" stroke-width="1">
    <path d="M120 176H1160"/>
    <path d="M120 256H1160"/>
    <path d="M120 336H1160"/>
    <path d="M120 416H1160"/>
    <path d="M120 496H1160"/>
    <path d="M226 104V568"/>
    <path d="M410 104V568"/>
    <path d="M594 104V568"/>
    <path d="M778 104V568"/>
    <path d="M962 104V568"/>
  </g>
  <g filter="url(#shadow)">
    <rect x="92" y="96" width="1096" height="470" rx="34" fill="#0B1B25" fill-opacity="0.94"/>
    <rect x="146" y="142" width="244" height="18" rx="9" fill="#F5FBFF"/>
    <rect x="146" y="176" width="334" height="12" rx="6" fill="#8AE2D0" fill-opacity="0.36"/>
    <rect x="146" y="226" width="430" height="282" rx="30" fill="#102A38"/>
    <path d="M214 398H472" stroke="#F7B955" stroke-width="18" stroke-linecap="round"/>
    <path d="M280 322H472L530 398H468L424 360H304L260 398H208L280 322Z" fill="#FFD078"/>
    <path d="M330 322L392 266H498L472 322H330Z" fill="#EAF4FF"/>
    <path d="M250 398H548" stroke="#243746" stroke-width="28" stroke-linecap="round"/>
    <circle cx="286" cy="398" r="38" fill="#0A1823" stroke="#8AE2D0" stroke-width="8"/>
    <circle cx="444" cy="398" r="38" fill="#0A1823" stroke="#79B8FF" stroke-width="8"/>
    <path d="M230 322L162 278" stroke="#F7B955" stroke-width="16" stroke-linecap="round"/>
    <path d="M158 278L142 244H214L198 278H158Z" fill="#FFD078"/>
    <rect x="650" y="226" width="386" height="128" rx="26" fill="#11283A"/>
    <rect x="688" y="264" width="160" height="26" rx="13" fill="#143B47"/>
    <rect x="866" y="264" width="118" height="26" rx="13" fill="#1B3145"/>
    <rect x="688" y="314" width="282" height="12" rx="6" fill="#8AE2D0" fill-opacity="0.34"/>
    <rect x="650" y="380" width="386" height="128" rx="26" fill="#102433"/>
    <path d="M698 458C746 418 796 418 846 458C900 502 946 488 988 446" stroke="url(#flow)" stroke-width="5" stroke-linecap="round"/>
    <circle cx="698" cy="458" r="11" fill="#4DD0B5"/>
    <circle cx="846" cy="458" r="11" fill="#79B8FF"/>
    <circle cx="988" cy="446" r="11" fill="#F7B955"/>
    <rect x="1060" y="226" width="78" height="282" rx="24" fill="#102B38"/>
    <rect x="1084" y="260" width="30" height="190" rx="15" fill="#1E3A48"/>
    <circle cx="1099" cy="474" r="18" fill="#4DD0B5"/>
  </g>
  <text x="92" y="650" fill="#F5FBFF" font-family="Space Grotesk, Arial, sans-serif" font-size="64" font-weight="700">Excavator Sales Engine</text>
  <text x="96" y="688" fill="#A5C1CF" font-family="Space Grotesk, Arial, sans-serif" font-size="24">Lead analysis / Product matching / Market simulation</text>
  <defs>
    <linearGradient id="bg" x1="80" y1="34" x2="1180" y2="680" gradientUnits="userSpaceOnUse">
      <stop stop-color="#07131B"/>
      <stop offset="0.5" stop-color="#0A1C28"/>
      <stop offset="1" stop-color="#061017"/>
    </linearGradient>
    <linearGradient id="flow" x1="698" y1="458" x2="988" y2="458" gradientUnits="userSpaceOnUse">
      <stop stop-color="#4DD0B5"/>
      <stop offset="0.5" stop-color="#79B8FF"/>
      <stop offset="1" stop-color="#F7B955"/>
    </linearGradient>
    <filter id="shadow" x="60" y="70" width="1160" height="532" filterUnits="userSpaceOnUse" color-interpolation-filters="sRGB">
      <feDropShadow dx="0" dy="18" stdDeviation="20" flood-color="#000000" flood-opacity="0.28"/>
    </filter>
  </defs>
</svg>
