<svg width="1280" height="720" viewBox="0 0 1280 720" fill="none" xmlns="http://www.w3.org/2000/svg">
  <rect width="1280" height="720" rx="40" fill="#07131B"/>
  <rect width="1280" height="720" rx="40" fill="url(#bg)"/>
  <g opacity="0.14" stroke="#8AE2D0" stroke-width="1">
    <path d="M120 180H1160"/>
    <path d="M120 260H1160"/>
    <path d="M120 340H1160"/>
    <path d="M120 420H1160"/>
    <path d="M120 500H1160"/>
  </g>
  <g filter="url(#shadow)">
    <rect x="92" y="96" width="1096" height="470" rx="34" fill="#0B1B25" fill-opacity="0.94"/>
    <rect x="146" y="142" width="240" height="18" rx="9" fill="#F5FBFF"/>
    <rect x="146" y="176" width="330" height="12" rx="6" fill="#8BE1D1" fill-opacity="0.36"/>
    <rect x="148" y="238" width="286" height="248" rx="28" fill="#102732"/>
    <rect x="188" y="282" width="206" height="18" rx="9" fill="#EAF4FF" fill-opacity="0.9"/>
    <rect x="188" y="328" width="178" height="12" rx="6" fill="#8AE2D0" fill-opacity="0.38"/>
    <rect x="188" y="360" width="202" height="12" rx="6" fill="#8AE2D0" fill-opacity="0.24"/>
    <rect x="188" y="414" width="80" height="38" rx="19" fill="#4DD0B5" fill-opacity="0.24"/>
    <text x="211" y="439" fill="#D6FBF3" font-family="Space Grotesk, Arial, sans-serif" font-size="20" font-weight="700">HK</text>
    <rect x="498" y="238" width="286" height="248" rx="28" fill="#11283A"/>
    <rect x="538" y="282" width="206" height="18" rx="9" fill="#EAF4FF" fill-opacity="0.86"/>
    <rect x="538" y="328" width="180" height="12" rx="6" fill="#79B8FF" fill-opacity="0.38"/>
    <rect x="538" y="360" width="202" height="12" rx="6" fill="#79B8FF" fill-opacity="0.24"/>
    <rect x="538" y="414" width="80" height="38" rx="19" fill="#79B8FF" fill-opacity="0.24"/>
    <text x="564" y="439" fill="#EAF4FF" font-family="Space Grotesk, Arial, sans-serif" font-size="20" font-weight="700">IT</text>
    <rect x="846" y="238" width="286" height="248" rx="28" fill="#102433"/>
    <path d="M928 342H1050" stroke="#F7B955" stroke-width="10" stroke-linecap="round"/>
    <path d="M988 282V408" stroke="#F7B955" stroke-width="10" stroke-linecap="round"/>
    <path d="M920 408H1058" stroke="#EAF4FF" stroke-width="8" stroke-linecap="round"/>
    <path d="M944 342L912 396H976L944 342Z" stroke="#8AE2D0" stroke-width="5" stroke-linejoin="round"/>
    <path d="M1032 342L1000 396H1064L1032 342Z" stroke="#79B8FF" stroke-width="5" stroke-linejoin="round"/>
    <path d="M434 362H498" stroke="#4DD0B5" stroke-width="5" stroke-linecap="round"/>
    <path d="M784 362H846" stroke="#79B8FF" stroke-width="5" stroke-linecap="round"/>
    <path d="M292 502H988" stroke="url(#flow)" stroke-width="4" stroke-linecap="round" stroke-dasharray="10 12"/>
    <circle cx="292" cy="502" r="10" fill="#4DD0B5"/>
    <circle cx="640" cy="502" r="10" fill="#79B8FF"/>
    <circle cx="988" cy="502" r="10" fill="#F7B955"/>
  </g>
  <text x="92" y="650" fill="#F5FBFF" font-family="Space Grotesk, Arial, sans-serif" font-size="64" font-weight="700">HK IT Law AI Specialist</text>
  <text x="96" y="688" fill="#A5C1CF" font-family="Space Grotesk, Arial, sans-serif" font-size="24">Legal comparison / Compliance Q&amp;A / Cross-region workflow</text>
  <defs>
    <linearGradient id="bg" x1="86" y1="36" x2="1180" y2="678" gradientUnits="userSpaceOnUse">
      <stop stop-color="#07131B"/>
      <stop offset="0.5" stop-color="#0A1C28"/>
      <stop offset="1" stop-color="#061017"/>
    </linearGradient>
    <linearGradient id="flow" x1="292" y1="502" x2="988" y2="502" gradientUnits="userSpaceOnUse">
      <stop stop-color="#4DD0B5"/>
      <stop offset="0.5" stop-color="#79B8FF"/>
      <stop offset="1" stop-color="#F7B955"/>
    </linearGradient>
    <filter id="shadow" x="60" y="70" width="1160" height="532" filterUnits="userSpaceOnUse" color-interpolation-filters="sRGB">
      <feDropShadow dx="0" dy="18" stdDeviation="20" flood-color="#000000" flood-opacity="0.28"/>
    </filter>
  </defs>
</svg>
