<svg width="1280" height="720" viewBox="0 0 1280 720" fill="none" xmlns="http://www.w3.org/2000/svg">
  <rect width="1280" height="720" rx="40" fill="#07131B"/>
  <rect width="1280" height="720" rx="40" fill="url(#bg)"/>
  <g opacity="0.13" stroke="#8AE2D0" stroke-width="1">
    <path d="M130 186H1150"/>
    <path d="M130 266H1150"/>
    <path d="M130 346H1150"/>
    <path d="M130 426H1150"/>
    <path d="M130 506H1150"/>
  </g>
  <g filter="url(#shadow)">
    <rect x="94" y="96" width="1092" height="470" rx="34" fill="#0B1B25" fill-opacity="0.94"/>
    <rect x="146" y="142" width="250" height="18" rx="9" fill="#F5FBFF"/>
    <rect x="146" y="176" width="334" height="12" rx="6" fill="#8BE1D1" fill-opacity="0.36"/>
    <rect x="150" y="232" width="336" height="276" rx="28" fill="#102732"/>
    <rect x="190" y="272" width="106" height="74" rx="18" fill="#153B46"/>
    <path d="M232 290L270 309L232 328V290Z" fill="#4DD0B5"/>
    <rect x="316" y="272" width="106" height="74" rx="18" fill="#11293D"/>
    <path d="M358 290L396 309L358 328V290Z" fill="#79B8FF"/>
    <rect x="190" y="374" width="232" height="12" rx="6" fill="#EAF4FF" fill-opacity="0.38"/>
    <rect x="190" y="408" width="180" height="12" rx="6" fill="#EAF4FF" fill-opacity="0.24"/>
    <rect x="548" y="232" width="584" height="276" rx="28" fill="#11283A"/>
    <path d="M660 370L774 306L900 364L1012 300" stroke="#DFF8F2" stroke-opacity="0.54" stroke-width="4"/>
    <path d="M774 306L816 444L900 364L716 450L660 370Z" stroke="#DFF8F2" stroke-opacity="0.34" stroke-width="3"/>
    <circle cx="660" cy="370" r="24" fill="#4DD0B5"/>
    <circle cx="774" cy="306" r="19" fill="#79B8FF"/>
    <circle cx="900" cy="364" r="22" fill="#F7B955"/>
    <circle cx="1012" cy="300" r="18" fill="#DFF8F2"/>
    <circle cx="816" cy="444" r="17" fill="#4DD0B5"/>
    <circle cx="716" cy="450" r="15" fill="#79B8FF"/>
    <rect x="604" y="462" width="150" height="24" rx="12" fill="#153B46"/>
    <rect x="770" y="462" width="178" height="24" rx="12" fill="#17314A"/>
    <rect x="964" y="462" width="112" height="24" rx="12" fill="#1E3341"/>
    <path d="M486 370H548" stroke="#4DD0B5" stroke-width="5" stroke-linecap="round"/>
  </g>
  <text x="94" y="650" fill="#F5FBFF" font-family="Space Grotesk, Arial, sans-serif" font-size="54" font-weight="700">LBDWS Video Hub &amp; Knowledge Graph</text>
  <text x="98" y="688" fill="#A5C1CF" font-family="Space Grotesk, Arial, sans-serif" font-size="24">Video indexing / Semantic retrieval / Knowledge graph assets</text>
  <defs>
    <linearGradient id="bg" x1="90" y1="40" x2="1176" y2="680" gradientUnits="userSpaceOnUse">
      <stop stop-color="#07131B"/>
      <stop offset="0.52" stop-color="#0A1C28"/>
      <stop offset="1" stop-color="#061017"/>
    </linearGradient>
    <filter id="shadow" x="62" y="70" width="1156" height="532" filterUnits="userSpaceOnUse" color-interpolation-filters="sRGB">
      <feDropShadow dx="0" dy="18" stdDeviation="20" flood-color="#000000" flood-opacity="0.28"/>
    </filter>
  </defs>
</svg>
